<svg width="123" height="30" viewBox="0 0 123 30" fill="none" xmlns="http://www.w3.org/2000/svg">
<path d="M35 7.978C35.419 8.04319 35.7988 8.10187 36.1393 8.15403C36.4798 8.19315 36.7744 8.22575 37.0232 8.25183C37.3113 8.29095 37.5667 8.32355 37.7893 8.34963C38.0643 8.38875 38.4768 8.34311 39.0268 8.21271C39.5768 8.06927 40.1792 7.93888 40.8339 7.82152C41.5018 7.69112 42.1827 7.6194 42.8768 7.60636C43.5708 7.58028 44.206 7.70416 44.7821 7.978C45.3583 8.25183 45.8298 8.52567 46.1964 8.79951C46.5631 9.07335 46.8512 9.36675 47.0607 9.67971C47.2833 9.97963 47.4405 10.2991 47.5321 10.6381C47.6238 10.9772 47.6762 11.3488 47.6893 11.7531C47.6762 12.3529 47.5321 12.9332 47.2571 13.4939C47.1393 13.7286 46.9821 13.9764 46.7857 14.2372C46.6024 14.4849 46.3732 14.7262 46.0982 14.9609C45.8232 15.1956 45.4958 15.4173 45.1161 15.6259C44.7494 15.8346 44.3173 16.0171 43.8196 16.1736C44.3042 16.317 44.7036 16.4866 45.0179 16.6822C45.3452 16.8778 45.6071 17.0603 45.8036 17.2298C46.0393 17.4385 46.2161 17.6406 46.3339 17.8362C46.478 18.11 46.5762 18.3447 46.6286 18.5403C46.681 18.7359 46.7137 18.925 46.7268 19.1076C46.753 19.2771 46.7857 19.4531 46.825 19.6357C46.8643 19.8183 46.9494 20.0269 47.0804 20.2616C47.1851 20.4442 47.3095 20.6333 47.4536 20.8289C47.5845 20.9984 47.7351 21.1809 47.9054 21.3765C48.0887 21.5721 48.3113 21.7612 48.5732 21.9438C48.2065 21.9568 47.8661 21.9633 47.5518 21.9633C47.2506 21.9633 46.9887 21.9633 46.7661 21.9633C46.5042 21.9633 46.2554 21.9568 46.0196 21.9438C45.7839 21.9307 45.4893 21.9242 45.1357 21.9242C44.8345 21.9242 44.4482 21.9242 43.9768 21.9242C43.5185 21.9242 42.9619 21.9307 42.3071 21.9438C42.5952 21.7221 42.831 21.5004 43.0143 21.2787C43.1976 21.057 43.3417 20.8549 43.4464 20.6724C43.5643 20.4637 43.6494 20.2616 43.7018 20.066C43.7673 19.7139 43.7738 19.3488 43.7214 18.9707C43.6821 18.6447 43.5774 18.2861 43.4071 17.8949C43.2369 17.4906 42.9619 17.0864 42.5821 16.6822C42.2024 16.7474 41.8815 16.7995 41.6196 16.8386C41.3708 16.8647 41.1548 16.8908 40.9714 16.9169C40.7619 16.943 40.5917 16.9625 40.4607 16.9756C40.3429 16.9886 40.2119 17.0016 40.0679 17.0147C39.95 17.0277 39.819 17.0473 39.675 17.0733C39.544 17.0864 39.4196 17.1059 39.3018 17.132C39.2756 17.6927 39.2756 18.1817 39.3018 18.599C39.328 19.0033 39.3607 19.3423 39.4 19.6161C39.4524 19.9421 39.5113 20.2225 39.5768 20.4572C39.6423 20.6919 39.7339 20.9201 39.8518 21.1418C39.9435 21.3244 40.0613 21.52 40.2054 21.7286C40.3494 21.9242 40.5131 22.0872 40.6964 22.2176C40.356 22.2176 40.0286 22.2176 39.7143 22.2176C39.4131 22.2176 39.1381 22.2111 38.8893 22.198C38.6012 22.198 38.3262 22.1915 38.0643 22.1785C37.8024 22.1654 37.5077 22.1589 37.1804 22.1589C36.9054 22.1589 36.578 22.1589 36.1982 22.1589C35.8315 22.1589 35.4321 22.1654 35 22.1785C35.3405 21.8264 35.6089 21.5265 35.8054 21.2787C36.0018 21.031 36.1524 20.8223 36.2571 20.6528C36.375 20.4703 36.447 20.3138 36.4732 20.1834C36.4994 19.9747 36.519 19.6031 36.5321 19.0685C36.5583 18.5208 36.578 17.8949 36.5911 17.1907C36.6042 16.4866 36.6107 15.7498 36.6107 14.9804C36.6107 14.2111 36.6042 13.4939 36.5911 12.8289C36.578 12.1508 36.5649 11.5705 36.5518 11.088C36.5387 10.6055 36.5256 10.2991 36.5125 10.1687C36.4732 9.93399 36.3881 9.69927 36.2571 9.46455C36.1524 9.25591 36.0018 9.02119 35.8054 8.76039C35.6089 8.49959 35.3405 8.23879 35 7.978ZM42.425 14.8631C42.556 14.7848 42.6673 14.7066 42.7589 14.6284C42.8506 14.5501 42.9292 14.4262 42.9946 14.2567C43.0601 14.0742 43.1125 13.8199 43.1518 13.4939C43.2042 13.1679 43.2631 12.7245 43.3286 12.1638C43.381 11.6031 43.3417 11.1402 43.2107 10.7751C43.0929 10.4099 42.9292 10.1231 42.7196 9.91443C42.5232 9.69275 42.3006 9.54279 42.0518 9.46455C41.8161 9.37327 41.6065 9.32763 41.4232 9.32763C41.0565 9.32763 40.6964 9.43847 40.3429 9.66015C39.9893 9.88183 39.7208 10.1817 39.5375 10.5599C39.472 10.7294 39.4131 11.0098 39.3607 11.401C39.3214 11.74 39.2952 12.2095 39.2821 12.8093C39.269 13.4091 39.2887 14.198 39.3411 15.176C39.8387 15.2543 40.2774 15.2869 40.6571 15.2738C41.0369 15.2478 41.3577 15.2021 41.6196 15.1369C41.9339 15.0717 42.2024 14.9804 42.425 14.8631Z" fill="white"/>
<path d="M49.9482 14.335C50.0137 14.2567 50.053 14.1133 50.0661 13.9046C50.0923 13.683 50.1446 13.4352 50.2232 13.1614C50.3149 12.8875 50.4655 12.6007 50.675 12.3007C50.8845 12.0008 51.225 11.7205 51.6964 11.4597C52.1548 11.1989 52.6 11.0424 53.0321 10.9902C53.4643 10.9381 53.8768 10.9576 54.2696 11.0489C54.6625 11.1402 55.0292 11.2836 55.3696 11.4792C55.7232 11.6748 56.044 11.89 56.3321 12.1247C56.5286 12.2812 56.6857 12.5094 56.8036 12.8093C56.9214 13.0962 57.0131 13.4222 57.0786 13.7873C57.144 14.1524 57.1899 14.5371 57.2161 14.9413C57.2554 15.3325 57.2815 15.7172 57.2946 16.0954C57.3077 16.4605 57.3143 16.7995 57.3143 17.1125C57.3274 17.4124 57.3536 17.6601 57.3929 17.8557C57.4452 18.1426 57.5369 18.3904 57.6679 18.599C57.7988 18.7946 57.9429 18.9641 58.1 19.1076C58.2571 19.238 58.4143 19.3423 58.5714 19.4205C58.7286 19.4988 58.8661 19.5575 58.9839 19.5966C59.0625 19.6357 59.1345 19.6618 59.2 19.6748C59.331 19.727 59.4226 19.727 59.475 19.6748C59.3964 19.8574 59.3244 20.0139 59.2589 20.1443C59.1935 20.2747 59.1411 20.3855 59.1018 20.4768C59.0494 20.5811 59.0036 20.6659 58.9643 20.7311C58.925 20.8093 58.8792 20.881 58.8268 20.9462C58.7875 21.0114 58.7351 21.0831 58.6696 21.1614C58.6042 21.2396 58.5387 21.3244 58.4732 21.4156C58.303 21.3504 58.1393 21.2722 57.9821 21.1809C57.8381 21.0896 57.7071 21.0049 57.5893 20.9267C57.4452 20.8354 57.3143 20.7441 57.1964 20.6528C57.0786 20.5615 56.9673 20.4572 56.8625 20.3399C56.7708 20.2355 56.6726 20.1247 56.5679 20.0073C56.4762 19.89 56.3976 19.7596 56.3321 19.6161C56.2536 19.7857 56.0637 20.0269 55.7625 20.3399C55.4744 20.6528 55.0946 20.9397 54.6232 21.2005C54.1518 21.4482 53.6018 21.6243 52.9732 21.7286C52.3577 21.8329 51.6768 21.7612 50.9304 21.5134C50.603 21.4091 50.2952 21.2592 50.0071 21.0636C49.719 20.8549 49.4702 20.6072 49.2607 20.3203C49.0643 20.0334 48.9202 19.7074 48.8286 19.3423C48.75 18.9641 48.7565 18.5469 48.8482 18.0905C48.9399 17.6341 49.1036 17.2494 49.3393 16.9364C49.575 16.6235 49.8565 16.3692 50.1839 16.1736C50.5113 15.978 50.878 15.828 51.2839 15.7237C51.6899 15.6194 52.1089 15.5477 52.5411 15.5086C52.8815 15.4955 53.222 15.5151 53.5625 15.5672C53.8506 15.6194 54.1518 15.7172 54.4661 15.8606C54.7804 15.991 55.0488 16.1932 55.2714 16.467C55.2583 15.7759 55.2321 15.2282 55.1929 14.824C55.1667 14.4067 55.1405 14.0872 55.1143 13.8655C55.0619 13.6047 55.0161 13.4222 54.9768 13.3178C54.9113 13.2266 54.8393 13.1222 54.7607 13.0049C54.6952 12.8875 54.6101 12.7832 54.5054 12.6919C54.4006 12.5876 54.2696 12.5029 54.1125 12.4377C53.9554 12.3725 53.772 12.3464 53.5625 12.3594C53.3399 12.3725 53.1631 12.4311 53.0321 12.5355C52.9012 12.6398 52.7964 12.7637 52.7179 12.9071C52.6524 13.0375 52.6131 13.1809 52.6 13.3374C52.5869 13.4939 52.5935 13.6308 52.6196 13.7482C52.6458 13.8264 52.6851 13.9112 52.7375 14.0024C52.7899 14.0807 52.8619 14.1654 52.9536 14.2567C53.0452 14.348 53.1696 14.4262 53.3268 14.4914C53.0256 14.5306 52.7571 14.5632 52.5214 14.5892C52.2857 14.6023 52.0827 14.6218 51.9125 14.6479C51.7161 14.674 51.5458 14.6936 51.4018 14.7066C51.2577 14.7196 51.0875 14.7457 50.8911 14.7848C50.7208 14.8109 50.5113 14.8435 50.2625 14.8826C50.0137 14.9218 49.7256 14.9739 49.3982 15.0391C49.4768 14.9478 49.5488 14.8631 49.6143 14.7848C49.6798 14.6936 49.7387 14.6153 49.7911 14.5501C49.8435 14.4719 49.8958 14.4002 49.9482 14.335ZM52.8946 16.6626C52.6589 16.6756 52.4232 16.7343 52.1875 16.8386C51.9518 16.9299 51.7423 17.0668 51.5589 17.2494C51.3756 17.4189 51.2185 17.621 51.0875 17.8557C50.9696 18.0774 50.9107 18.3252 50.9107 18.599C50.9107 18.8729 50.9762 19.1141 51.1071 19.3227C51.2512 19.5183 51.4345 19.6813 51.6571 19.8117C51.8929 19.9421 52.1417 20.0204 52.4036 20.0465C52.6786 20.0725 52.947 20.0465 53.2089 19.9682C53.4577 19.8769 53.6935 19.7335 53.9161 19.5379C54.1387 19.3293 54.3286 19.1076 54.4857 18.8729C54.6429 18.6251 54.7542 18.3839 54.8196 18.1491C54.8851 17.9014 54.8917 17.6993 54.8393 17.5428C54.7345 17.2037 54.4988 16.969 54.1321 16.8386C53.7655 16.6952 53.353 16.6365 52.8946 16.6626Z" fill="white"/>
<path d="M57.9821 11.4792C58.2048 11.5183 58.4339 11.5509 58.6696 11.577C58.8923 11.5901 59.0952 11.6031 59.2786 11.6161C59.4881 11.6292 59.6911 11.6357 59.8875 11.6357C60.0839 11.6357 60.3065 11.6292 60.5554 11.6161C60.7649 11.6031 61.0137 11.5835 61.3018 11.5575C61.603 11.5314 61.9304 11.4923 62.2839 11.4401C62.0744 11.5575 61.9107 11.6813 61.7929 11.8117C61.675 11.9421 61.5833 12.0595 61.5179 12.1638C61.4393 12.2942 61.3869 12.4116 61.3607 12.5159C61.3345 12.6202 61.3411 12.8354 61.3804 13.1614C61.4196 13.4874 61.472 13.8655 61.5375 14.2958C61.6161 14.7262 61.7012 15.176 61.7929 15.6455C61.8845 16.1149 61.9762 16.5452 62.0679 16.9364C62.1726 17.3276 62.2643 17.6536 62.3429 17.9144C62.4345 18.1752 62.5065 18.2991 62.5589 18.2861C62.6113 18.2861 62.6899 18.1557 62.7946 17.8949C62.9125 17.6341 63.0435 17.3146 63.1875 16.9364C63.3315 16.5452 63.4821 16.1214 63.6393 15.665C63.7964 15.1956 63.9339 14.7588 64.0518 14.3545C64.1696 13.9503 64.2613 13.6112 64.3268 13.3374C64.4054 13.0505 64.4381 12.881 64.425 12.8289C64.3857 12.7767 64.3399 12.705 64.2875 12.6137C64.1958 12.4703 63.9929 12.2225 63.6786 11.8704C64.0583 11.8965 64.3857 11.9226 64.6607 11.9487C64.9357 11.9617 65.1583 11.9813 65.3286 12.0073C65.525 12.0334 65.6821 12.053 65.8 12.066C65.9179 12.0791 66.0881 12.0791 66.3107 12.066C66.494 12.066 66.7363 12.0595 67.0375 12.0465C67.3518 12.0204 67.7381 11.9813 68.1964 11.9291C67.856 12.1247 67.5744 12.3007 67.3518 12.4572C67.1423 12.6007 66.9786 12.7245 66.8607 12.8289C66.7167 12.9593 66.6119 13.0701 66.5464 13.1614C66.4548 13.3309 66.2911 13.7351 66.0554 14.3741C65.9506 14.6479 65.8196 14.987 65.6625 15.3912C65.5185 15.7954 65.3417 16.2844 65.1321 16.8582C64.9357 17.4189 64.7 18.0774 64.425 18.8337C64.15 19.5901 63.8423 20.4572 63.5018 21.4352L61.5964 21.6308C61.3476 20.8093 61.1446 20.1247 60.9875 19.577C60.8435 19.0163 60.7256 18.5664 60.6339 18.2274C60.5292 17.8362 60.4506 17.5297 60.3982 17.3081C60.3327 17.0603 60.2542 16.7017 60.1625 16.2323C60.0708 15.7498 59.9792 15.2608 59.8875 14.7653C59.7958 14.2698 59.7042 13.8264 59.6125 13.4352C59.5208 13.031 59.4488 12.7832 59.3964 12.6919C59.344 12.6267 59.2524 12.5355 59.1214 12.4181C59.0167 12.3138 58.8726 12.1899 58.6893 12.0465C58.506 11.89 58.2702 11.7009 57.9821 11.4792Z" fill="white"/>
<path d="M67.1946 13.5134L70.8089 13.5526C70.5994 14.348 70.4423 15.0261 70.3375 15.5868C70.2458 16.1475 70.1869 16.617 70.1607 16.9951C70.1083 17.4254 70.0952 17.7905 70.1214 18.0905C70.1607 18.3643 70.2262 18.6577 70.3179 18.9707C70.3964 19.2315 70.5143 19.5314 70.6714 19.8704C70.8286 20.2095 71.0381 20.5485 71.3 20.8875C71.1429 20.8354 70.9726 20.7963 70.7893 20.7702C70.606 20.7441 70.4357 20.7245 70.2786 20.7115C70.0952 20.6985 69.9119 20.6985 69.7286 20.7115C69.5452 20.7245 69.3423 20.7441 69.1196 20.7702C68.9363 20.7963 68.7137 20.8289 68.4518 20.868C68.1899 20.9071 67.9149 20.9593 67.6268 21.0244C67.8232 20.4377 67.9738 19.9291 68.0786 19.4988C68.1964 19.0685 68.2815 18.7099 68.3339 18.423C68.3863 18.0839 68.419 17.8101 68.4321 17.6015C68.4321 17.3407 68.4321 17.0473 68.4321 16.7213C68.4321 16.3822 68.4321 16.0562 68.4321 15.7433C68.4321 15.4303 68.4256 15.1565 68.4125 14.9218C68.3994 14.674 68.3732 14.5175 68.3339 14.4523L68.1375 14.2567C68.0589 14.1915 67.9411 14.1002 67.7839 13.9829C67.6399 13.8525 67.4435 13.696 67.1946 13.5134ZM68.5893 10.5012C68.8643 10.3578 69.1393 10.3187 69.4143 10.3839C69.7024 10.4491 69.925 10.5729 70.0821 10.7555C70.2393 10.9381 70.2917 11.1532 70.2393 11.401C70.2 11.6487 69.9905 11.89 69.6107 12.1247C69.231 12.3464 68.897 12.4246 68.6089 12.3594C68.3208 12.2942 68.1179 12.1573 68 11.9487C67.8821 11.74 67.8625 11.4988 67.9411 11.2249C68.0196 10.9381 68.2357 10.6968 68.5893 10.5012Z" fill="white"/>
<path d="M84.1071 7.80196C84.5655 7.80196 84.978 7.8802 85.3446 8.03667C85.7244 8.18011 86.0714 8.34311 86.3857 8.52567C86.7131 8.70823 87.0208 8.87775 87.3089 9.03423C87.597 9.17767 87.8917 9.24939 88.1929 9.24939C88.4286 9.23635 88.697 9.20375 88.9982 9.15159C89.2601 9.09943 89.5613 9.02119 89.9018 8.91687C90.2554 8.79951 90.6482 8.62999 91.0804 8.40831C90.6482 8.82559 90.2946 9.17767 90.0196 9.46455C89.7577 9.73839 89.5548 9.96659 89.4107 10.1491C89.2405 10.3578 89.1161 10.5208 89.0375 10.6381C88.9589 10.7816 88.8411 10.9967 88.6839 11.2836C88.5399 11.5444 88.3435 11.8965 88.0946 12.3399C87.8458 12.7702 87.5315 13.3374 87.1518 14.0416C87.1518 13.1418 87.0601 12.4442 86.8768 11.9487C86.7065 11.4531 86.5167 11.075 86.3071 10.8142C86.0583 10.5143 85.7768 10.3252 85.4625 10.2469C85.1744 10.2078 84.8863 10.26 84.5982 10.4034C84.3101 10.5338 84.022 10.7294 83.7339 10.9902C83.4589 11.251 83.1905 11.564 82.9286 11.9291C82.6798 12.2812 82.4506 12.6528 82.2411 13.044C82.0446 13.4352 81.881 13.8329 81.75 14.2372C81.619 14.6284 81.5339 14.9935 81.4946 15.3325C81.4554 15.6324 81.4488 15.9845 81.475 16.3888C81.5012 16.78 81.5601 17.1842 81.6518 17.6015C81.7435 18.0057 81.8613 18.4034 82.0054 18.7946C82.1494 19.1858 82.3262 19.5379 82.5357 19.8509C82.7583 20.1508 83.0071 20.3985 83.2821 20.5941C83.5571 20.7767 83.8714 20.8615 84.225 20.8484C84.6179 20.8223 85.0042 20.705 85.3839 20.4963C85.7113 20.3268 86.0452 20.066 86.3857 19.7139C86.7262 19.3488 87.0208 18.8337 87.2696 18.1687L90.1768 18.6968C89.3387 19.7139 88.5202 20.4768 87.7214 20.9853C86.9357 21.4939 86.2286 21.8525 85.6 22.0611C84.8667 22.2958 84.1726 22.4067 83.5179 22.3936C82.6929 22.3024 81.9202 22.0546 81.2 21.6504C80.4798 21.2461 79.8577 20.7571 79.3339 20.1834C78.8232 19.5966 78.4238 18.9576 78.1357 18.2665C77.8476 17.5754 77.7232 16.8973 77.7625 16.2323C77.7887 15.7889 77.8804 15.2738 78.0375 14.687C78.1946 14.0872 78.4042 13.4743 78.6661 12.8484C78.9411 12.2225 79.2685 11.6096 79.6482 11.0098C80.028 10.4099 80.447 9.87531 80.9054 9.40587C81.3637 8.92339 81.8613 8.53871 82.3982 8.25183C82.9482 7.95192 83.5179 7.80196 84.1071 7.80196Z" fill="white"/>
<path d="M95.2446 13.4939C95.5851 13.4939 95.9387 13.5591 96.3054 13.6895C96.672 13.8068 97.0256 13.9633 97.3661 14.1589C97.7065 14.3415 98.0143 14.5436 98.2893 14.7653C98.5774 14.9739 98.8131 15.176 98.9964 15.3716C99.3238 15.7237 99.5464 16.1997 99.6643 16.7995C99.7952 17.3863 99.8214 17.9927 99.7429 18.6186C99.6643 19.2315 99.481 19.8117 99.1929 20.3594C98.9048 20.9071 98.5054 21.3113 97.9946 21.5721C97.628 21.7547 97.2679 21.8981 96.9143 22.0024C96.5607 22.1068 96.2202 22.185 95.8929 22.2372C95.5655 22.2893 95.2577 22.3154 94.9696 22.3154C94.6815 22.3154 94.4327 22.3089 94.2232 22.2958C93.8304 22.2698 93.4179 22.1328 92.9857 21.8851C92.5667 21.6373 92.1673 21.3309 91.7875 20.9658C91.4208 20.6007 91.1065 20.2029 90.8446 19.7726C90.5827 19.3293 90.4256 18.912 90.3732 18.5208C90.2946 17.9861 90.2815 17.4254 90.3339 16.8386C90.3863 16.2518 90.5762 15.7107 90.9036 15.2152C91.244 14.7196 91.7548 14.3089 92.4357 13.9829C93.1298 13.6569 94.0661 13.4939 95.2446 13.4939ZM94.5964 21.0831C94.7405 21.1092 94.9369 21.0766 95.1857 20.9853C95.4345 20.881 95.6768 20.718 95.9125 20.4963C96.1613 20.2747 96.3774 19.9943 96.5607 19.6553C96.7571 19.3032 96.875 18.8794 96.9143 18.3839C96.9536 17.9014 96.9536 17.458 96.9143 17.0538C96.8881 16.6496 96.8292 16.2975 96.7375 15.9976C96.6458 15.6846 96.5411 15.4303 96.4232 15.2347C96.3054 15.0391 96.181 14.9022 96.05 14.824C95.8274 14.7066 95.5589 14.6153 95.2446 14.5501C94.9304 14.4719 94.6619 14.4849 94.4393 14.5892C94.3345 14.6414 94.2036 14.7522 94.0464 14.9218C93.8893 15.0913 93.7321 15.3064 93.575 15.5672C93.4179 15.815 93.2738 16.1019 93.1429 16.4279C93.025 16.7539 92.9399 17.0929 92.8875 17.445C92.8351 17.7971 92.822 18.1752 92.8482 18.5795C92.8875 18.9837 92.9726 19.3684 93.1036 19.7335C93.2345 20.0856 93.4179 20.392 93.6536 20.6528C93.9024 20.9006 94.2167 21.044 94.5964 21.0831Z" fill="white"/>
<path d="M110.33 7.27384C110.579 7.28688 110.848 7.2934 111.136 7.2934C111.385 7.2934 111.666 7.29992 111.98 7.31296C112.308 7.31296 112.648 7.29992 113.002 7.27384C112.688 7.41728 112.413 7.62592 112.177 7.89976C111.941 8.17359 111.751 8.44743 111.607 8.72127C111.424 9.04727 111.273 9.38631 111.155 9.73839C111.09 9.94703 111.038 10.3187 110.998 10.8533C110.959 11.3749 110.926 11.9878 110.9 12.6919C110.887 13.3961 110.88 14.1394 110.88 14.9218C110.88 15.7042 110.887 16.454 110.9 17.1711C110.913 17.8753 110.933 18.5012 110.959 19.0489C110.985 19.5966 111.018 19.9813 111.057 20.2029C111.11 20.4637 111.175 20.7115 111.254 20.9462C111.319 21.1548 111.404 21.37 111.509 21.5917C111.614 21.8003 111.745 21.9698 111.902 22.1002L109.898 23C109.793 22.8566 109.708 22.7066 109.643 22.5501C109.577 22.4067 109.525 22.2763 109.486 22.1589C109.433 22.0155 109.401 21.8851 109.388 21.7677C109.361 21.6112 109.335 21.4417 109.309 21.2592C109.283 21.0636 109.25 20.881 109.211 20.7115C109.185 20.5289 109.165 20.379 109.152 20.2616C109.139 20.1443 109.139 20.0725 109.152 20.0465C109.165 20.0204 109.086 20.1377 108.916 20.3985C108.746 20.6463 108.49 20.9397 108.15 21.2787C107.823 21.6047 107.417 21.9242 106.932 22.2372C106.448 22.5371 105.904 22.7262 105.302 22.8044C104.686 22.8826 104.117 22.7653 103.593 22.4523C103.082 22.1394 102.643 21.7025 102.277 21.1418C101.91 20.5681 101.629 19.9095 101.432 19.1663C101.249 18.4099 101.177 17.6406 101.216 16.8582C101.242 16.3366 101.36 15.8737 101.57 15.4694C101.779 15.0522 102.041 14.6936 102.355 14.3936C102.683 14.0807 103.036 13.8199 103.416 13.6112C103.809 13.3896 104.189 13.207 104.555 13.0636C104.935 12.9201 105.289 12.8158 105.616 12.7506C105.943 12.6854 106.205 12.6398 106.402 12.6137C106.638 12.6007 106.906 12.6398 107.207 12.7311C107.469 12.8093 107.77 12.9397 108.111 13.1222C108.464 13.3048 108.857 13.5786 109.289 13.9438C109.211 12.6398 109.139 11.5966 109.073 10.8142C109.008 10.0187 108.942 9.41239 108.877 8.99511C108.811 8.49959 108.752 8.16055 108.7 7.978C108.635 7.8476 108.549 7.7172 108.445 7.5868C108.353 7.48248 108.235 7.37816 108.091 7.27384C107.96 7.15648 107.803 7.0652 107.62 7C107.96 7.0652 108.288 7.11084 108.602 7.13692C108.916 7.163 109.204 7.18908 109.466 7.21516C109.767 7.24124 110.055 7.2608 110.33 7.27384ZM105.4 14.5697C105.151 14.661 104.948 14.8174 104.791 15.0391C104.647 15.2608 104.529 15.5281 104.438 15.8411C104.346 16.141 104.28 16.467 104.241 16.8191C104.215 17.1581 104.195 17.4906 104.182 17.8166C104.182 18.1296 104.182 18.4165 104.182 18.6773C104.182 18.9381 104.182 19.1337 104.182 19.2641C104.182 19.3423 104.195 19.4857 104.221 19.6944C104.261 19.89 104.339 20.0986 104.457 20.3203C104.575 20.5289 104.739 20.718 104.948 20.8875C105.171 21.057 105.465 21.1418 105.832 21.1418C106.133 21.1157 106.454 21.0114 106.795 20.8289C107.096 20.6724 107.436 20.4246 107.816 20.0856C108.209 19.7335 108.628 19.2315 109.073 18.5795C109.047 18.1622 109.027 17.8166 109.014 17.5428C109.014 17.2689 109.008 17.0473 108.995 16.8778C108.982 16.6822 108.975 16.5257 108.975 16.4083V16.1149C108.975 16.0367 108.975 15.9519 108.975 15.8606C108.975 15.7694 108.982 15.6846 108.995 15.6064C108.628 15.3456 108.301 15.1239 108.013 14.9413C107.738 14.7457 107.463 14.6023 107.188 14.511C106.926 14.4067 106.651 14.361 106.363 14.3741C106.088 14.3741 105.767 14.4393 105.4 14.5697Z" fill="white"/>
<path d="M117.696 19.1076C118.063 19.1076 118.404 19.0685 118.718 18.9902C118.98 18.925 119.229 18.8207 119.464 18.6773C119.713 18.5208 119.877 18.2926 119.955 17.9927C120.217 18.0448 120.44 18.0905 120.623 18.1296C120.807 18.1557 120.964 18.1817 121.095 18.2078C121.239 18.2469 121.363 18.273 121.468 18.2861C121.573 18.3121 121.697 18.3382 121.841 18.3643C121.972 18.3904 122.129 18.423 122.313 18.4621C122.509 18.4882 122.738 18.5273 123 18.5795C122.804 18.5534 122.601 18.5729 122.391 18.6381C122.195 18.7033 122.005 18.7751 121.821 18.8533C121.612 18.9446 121.415 19.0554 121.232 19.1858C121.114 19.2641 120.977 19.3814 120.82 19.5379C120.676 19.6944 120.466 19.8443 120.191 19.9878C119.916 20.1312 119.549 20.2551 119.091 20.3594C118.646 20.4507 118.07 20.4833 117.363 20.4572C116.511 20.4311 115.798 20.2812 115.221 20.0073C114.645 19.7205 114.18 19.3749 113.827 18.9707C113.473 18.5534 113.218 18.1035 113.061 17.621C112.904 17.1385 112.818 16.6887 112.805 16.2714C112.792 15.8541 112.917 15.4173 113.179 14.9609C113.44 14.5045 113.807 14.0872 114.279 13.709C114.763 13.3309 115.346 13.0244 116.027 12.7897C116.708 12.542 117.454 12.4181 118.266 12.4181C118.738 12.4181 119.17 12.4768 119.563 12.5941C119.968 12.6985 120.335 12.8419 120.663 13.0244C121.003 13.207 121.298 13.4156 121.546 13.6504C121.795 13.872 122.005 14.1002 122.175 14.335C122.345 14.5827 122.489 14.8435 122.607 15.1174C122.712 15.3521 122.797 15.6194 122.863 15.9193C122.928 16.2192 122.948 16.5257 122.921 16.8386C121.926 16.8647 121.121 16.8843 120.505 16.8973C119.903 16.9104 119.432 16.9169 119.091 16.9169H118.207H117.539C117.304 16.9169 116.996 16.9234 116.616 16.9364C116.236 16.9495 115.771 16.969 115.221 16.9951C115.287 17.5167 115.451 17.9209 115.713 18.2078C115.988 18.4817 116.276 18.6903 116.577 18.8337C116.917 18.9902 117.29 19.0815 117.696 19.1076ZM115.929 15.5868C116.348 15.6129 116.695 15.6324 116.97 15.6455C117.258 15.6585 117.493 15.6716 117.677 15.6846C117.873 15.6976 118.03 15.7042 118.148 15.7042H118.639C118.967 15.7042 119.576 15.6846 120.466 15.6455C120.427 15.0717 120.302 14.6349 120.093 14.335C119.896 14.035 119.687 13.8134 119.464 13.6699C119.202 13.5134 118.914 13.4222 118.6 13.3961C117.749 13.4091 117.114 13.5852 116.695 13.9242C116.289 14.2632 116.033 14.8174 115.929 15.5868Z" fill="white"/>
<g clip-path="url(#clip0_6_8)">
<path d="M15 30C6.71531 30 0 23.2847 0 15C0 6.71531 6.71531 0 15 0C23.2847 0 30 6.71531 30 15C30 23.2847 23.2847 30 15 30ZM9.84375 23.0981L13.0941 21.3994V10.0734L17.7366 12.6778L14.2547 14.49V18.2278L22.0312 23.4375V19.9266L17.2725 16.6425L21.2194 14.6034V10.9791L13.0931 6.5625L9.84375 8.26125V23.0981Z" fill="white"/>
</g>
<defs>
<clipPath id="clip0_6_8">
<rect width="30" height="30" fill="white"/>
</clipPath>
</defs>
</svg>
